<svg version="1.1" xmlns="http://www.w3.org/2000/svg" xmlns:xlink="http://www.w3.org/1999/xlink" width="10.95819" height="11.11396" viewBox="0,0,10.95819,11.11396"><defs><linearGradient x1="462.91411" y1="9.91022" x2="473.87205" y2="9.91022" gradientUnits="userSpaceOnUse" id="color-1"><stop offset="0" stop-color="#6d6e71"/><stop offset="1" stop-color="#414042"/></linearGradient><linearGradient x1="468.39317" y1="4.68756" x2="468.39317" y2="15.13232" gradientUnits="userSpaceOnUse" id="color-2"><stop offset="0" stop-color="#58595b"/><stop offset="1" stop-color="#000000"/></linearGradient></defs><g transform="translate(-462.91384,-4.35305)"><g data-paper-data="{&quot;isPaintingLayer&quot;:true}" fill-rule="nonzero" stroke="none" stroke-width="1" stroke-linecap="butt" stroke-linejoin="miter" stroke-miterlimit="10" stroke-dasharray="" stroke-dashoffset="0" style="mix-blend-mode: normal"><path d="M473.35996,12.71978c0.62097,0.64295 0.60367,1.67117 -0.03948,2.29234c-0.30397,0.29328 -0.70383,0.45489 -1.12643,0.45489v0c-0.44361,0 -0.85766,-0.17561 -1.16571,-0.49495l-2.65271,-2.74645l-2.69238,2.70716c-0.3065,0.30845 -0.71491,0.47823 -1.14938,0.47823c-0.43097,0 -0.83724,-0.16765 -1.14296,-0.472c-0.63381,-0.63031 -0.63634,-1.65872 -0.00603,-2.29234l2.73828,-2.75325l-2.69782,-2.79312c-0.62078,-0.64314 -0.60308,-1.67117 0.03987,-2.29234c0.30378,-0.29308 0.70382,-0.45489 1.12604,-0.45489c0.4438,0 0.85785,0.17581 1.1663,0.49495l2.65271,2.74606l2.69219,-2.70677c0.3067,-0.30825 0.7151,-0.47803 1.14957,-0.47803c0.43136,0 0.83743,0.16745 1.14296,0.47161c0.63361,0.63031 0.63653,1.65872 0.00603,2.29253l-2.73808,2.75325z" fill="url(#color-1)"/><path d="M473.11958,12.95238c0.49398,0.5111 0.47978,1.32519 -0.03131,1.81917c-0.51071,0.4934 -1.32557,0.4792 -1.81897,-0.0317l-2.88978,-2.99188l-2.93315,2.94929c-0.50098,0.50371 -1.31527,0.50584 -1.81936,0.00486c-0.50351,-0.50118 -0.50565,-1.31527 -0.00467,-1.81936l2.96952,-2.98586l-2.92537,-3.02903c-0.49379,-0.5111 -0.47959,-1.32539 0.03151,-1.81917c0.5109,-0.49359 1.32519,-0.47939 1.81897,0.0317l2.88958,2.99169l2.93334,-2.9491c0.50118,-0.5039 1.31565,-0.50623 1.81936,-0.00525c0.5039,0.50118 0.50604,1.31566 0.00486,1.81956l-2.96971,2.98586z" fill="url(#color-2)"/></g></g></svg>