<svg version="1.1" xmlns="http://www.w3.org/2000/svg" xmlns:xlink="http://www.w3.org/1999/xlink" width="83" height="36.16586" viewBox="0,0,83,36.16586"><defs><linearGradient x1="3.38126" y1="212.45586" x2="86.38126" y2="212.45586" gradientUnits="userSpaceOnUse" id="color-1"><stop offset="0" stop-color="#fbb040"/><stop offset="1" stop-color="#f15a29"/></linearGradient><linearGradient x1="6.49577" y1="212.45517" x2="83.266" y2="212.45517" gradientUnits="userSpaceOnUse" id="color-2"><stop offset="0" stop-color="#ed7340"/><stop offset="0.5181" stop-color="#f4aa46"/><stop offset="1" stop-color="#f29746"/></linearGradient></defs><g transform="translate(-3.38133,-194.37314)"><g data-paper-data="{&quot;isPaintingLayer&quot;:true}" fill-rule="nonzero" stroke="none" stroke-width="1" stroke-linecap="butt" stroke-linejoin="miter" stroke-miterlimit="10" stroke-dasharray="" stroke-dashoffset="0" style="mix-blend-mode: normal"><path d="M86.38133,212.45607c0,9.97038 -8.11325,18.08293 -18.08432,18.08293h-46.83344c-9.97038,0 -18.08224,-8.11187 -18.08224,-18.08293c0,-9.97107 8.11118,-18.08293 18.08224,-18.08293h46.83344c9.97107,0 18.08363,8.11117 18.08432,18.08293z" fill="url(#color-1)"/><path d="M83.26607,212.45468c0,8.26749 -6.70156,14.96836 -14.96905,14.96836h-46.83344c-8.2668,0 -14.96767,-6.70087 -14.96767,-14.96836v0c0,-8.26611 6.70087,-14.96767 14.96767,-14.96767h46.83344c8.2668,0 14.96905,6.70156 14.96905,14.96767z" fill="url(#color-2)"/><text transform="translate(12.15446,216.72608) scale(0.32105,0.32105)" font-size="40" xml:space="preserve" fill="#000000" fill-rule="nonzero" stroke="none" stroke-width="1" stroke-linecap="butt" stroke-linejoin="miter" stroke-miterlimit="10" stroke-dasharray="" stroke-dashoffset="0" font-family="Pixel" font-weight="normal" text-anchor="start" style="mix-blend-mode: normal"><tspan x="0" dy="0">Shutdown</tspan></text></g></g></svg>