<svg version="1.1" xmlns="http://www.w3.org/2000/svg" xmlns:xlink="http://www.w3.org/1999/xlink" width="123.04688" height="159.25509" viewBox="0,0,123.04688,159.25509"><g transform="translate(-169.84375,-99.49491)"><g data-paper-data="{&quot;isPaintingLayer&quot;:true}" fill-rule="nonzero" stroke="none" stroke-width="1" stroke-linecap="butt" stroke-linejoin="miter" stroke-miterlimit="10" stroke-dasharray="" stroke-dashoffset="0" style="mix-blend-mode: normal"><path d="M267.75,112.5529c0.45,0.7028 0.6,1.3553 0.2,2.1585c-0.3,0.5521 -0.75,0.9035 -1.3,1.2047c-0.35,0.2008 -0.7,0.1004 -1.05,-0.1004c-0.55,-0.3012 -0.9,-0.8032 -1,-1.4055c-0.05,-0.3514 -0.05,-0.7027 -0.1,-1.0541c-0.05,0 -0.1,0 -0.15,0c-0.05,0.0502 -0.15,0.0502 -0.2,0.1004c-0.5,1.0039 -0.85,2.058 -1.5,3.0117c0.45,0.0502 0.6,-0.2007 0.85,-0.3513c0.65,-0.3012 1.25,-0.251 1.8,0.2509c0.55,0.5522 0.8,1.1546 0.55,1.9577c-0.15,0.4016 -0.35,0.7027 -0.65,1.0039c-0.65,0.7028 -1.55,0.6526 -2.25,0c-0.3,-0.3012 -0.5,-0.6525 -0.55,-1.0541c-0.05,-0.2008 -0.05,-0.4518 -0.1,-0.6526c-0.1,-0.0502 -0.1,-0.0502 -0.15,-0.0502c-0.05,0 -0.05,0.0502 -0.1,0.1004c-0.25,0.4016 -0.45,0.8534 -0.65,1.2549c-0.25,0.6024 -0.55,1.1546 -0.85,1.7067c-0.65,1.1043 -1,2.309 -1.25,3.5137c-0.1,0.5522 -0.25,1.1043 -0.4,1.6063c-0.6,1.9577 -1.1,3.9153 -1.75,5.873c-0.4,1.1545 -0.6,2.4094 -1,3.5639c-0.35,1.0039 -0.6,2.058 -0.9,3.1121c-0.95,3.3632 -1.9,6.7263 -2.8,10.0894c-0.9,3.2628 -1.65,6.5255 -2.7,9.7381c-0.4,1.3553 -0.75,2.7106 -1.1,4.0157c0.25,0.3011 0.55,0.5019 0.9,0.6525c1.95,0.9035 3.75,2.1584 5.4,3.5137c1,0.8032 1.75,1.7569 2.3,2.8612c1.15,2.309 1.65,4.7686 1.45,7.3286c-0.2,2.6604 -0.9,5.12 -2.1,7.4793c-0.8,1.6062 -1.6,3.2125 -2.55,4.7686c-0.4,0.7027 -0.9,1.3553 -1.3,2.0078c-1.1,1.8573 -1.6,3.8149 -1.25,5.9734c0.25,1.4055 0.55,2.7607 0.9,4.116c0.55,2.3091 0.95,4.6181 1.35,6.9773c0.15,0.8533 0.2,1.7569 0.15,2.6604c-0.1,1.3051 -0.1,2.6604 -0.4,3.9153c-0.45,1.7568 -0.95,3.4635 -2.05,4.9694c-0.4,0.502 -0.7,1.0541 -1.1,1.5561c-1.15,1.4557 -2.6,2.56 -4.25,3.4635c-3.6,1.9075 -7.4,2.3592 -11.4,2.0078c-3.45,-0.3513 -6.85,-1.0541 -10.1,-2.309c-1.45,-0.5521 -2.95,-1.0541 -4.35,-1.6564c-1.15,-0.4518 -2.3,-0.9036 -3.4,-1.5561c-1.2,-0.7028 -2.5,-1.2549 -3.65,-2.0581c-1.5,-1.0541 -3.05,-2.058 -4.4,-3.3129c-3.5,-3.4133 -4.9,-7.4792 -4.25,-12.3482c0.15,-0.9538 0.35,-1.9075 0.65,-2.811c0.95,-2.811 2.2,-5.371 4.25,-7.5796c1.45,-1.5561 2.95,-3.0118 4.5,-4.5177c1.9,-1.807 3.5,-3.8149 4.7,-6.1741c0.3,-0.5521 0.45,-1.2047 0.6,-1.807c0.45,-1.8573 0.5,-3.7146 0.5,-5.622c0.05,-2.9616 0.75,-5.8228 1.9,-8.4831c0.75,-1.7569 2.05,-3.1624 3.65,-4.2165c2.8,-1.8071 5.9,-2.811 9.3,-2.7106c0.4,0 0.8,0.0502 1.2,0.0502c0.05,0 0.05,-0.0502 0.15,-0.0502c0.2,-0.502 0.4,-1.0541 0.6,-1.6565c0.75,-2.56 1.5,-5.1702 2.25,-7.7302c0.7,-2.5098 1.45,-5.0196 2.15,-7.5294c1.3,-4.8188 2.8,-9.6376 4.35,-14.4063c0.95,-2.7607 1.85,-5.5215 2.8,-8.3325c0.25,-0.8533 0.55,-1.6565 0.55,-2.56c0,-0.7529 0.25,-1.5059 0.4,-2.2588c0.05,-0.2008 0.1,-0.4016 0,-0.6024c-0.3,-0.1506 -0.55,-0.2008 -0.85,0.1004c-0.1,0.1004 -0.15,0.2008 -0.25,0.251c-0.75,0.6525 -1.85,0.4518 -2.35,-0.4518c-0.5,-0.9035 -0.25,-1.9074 0.6,-2.4094c0.35,-0.2008 0.65,-0.2008 1,0.0502c0.45,0.3514 1.1,0.502 1.3,1.1545c0.1,0.251 0.4,0.251 0.7,0.1004c0.25,-0.9537 0.4,-1.9576 0.45,-2.9616c-0.4,-0.2509 -0.7,-0.2007 -1,0.1004c-0.25,0.251 -0.6,0.4016 -0.95,0.4518c-0.6,0.0502 -1.1,-0.2008 -1.45,-0.7027c-0.3,-0.502 -0.45,-1.0542 -0.2,-1.6063c0.35,-0.753 1,-1.0039 1.75,-1.0541c0.4,0 0.75,0.2509 1,0.6023c0.15,0.251 0.25,0.502 0.35,0.753c0.1,0.2509 0.35,0.2509 0.65,0.3513c0.2,-1.1545 0.35,-2.2588 0.5,-3.3129c-0.2,-0.251 -0.35,-0.3012 -0.65,-0.251c-0.05,0.1004 -0.15,0.2008 -0.25,0.3514c-0.55,0.6023 -1.2,0.8031 -1.8,0.5521c-0.65,-0.3011 -1.15,-0.9537 -1.15,-1.556c0,-0.7028 0.5,-1.4055 1.2,-1.6565c0.6,-0.2008 1.1,0.0502 1.55,0.4518c0.15,0.1505 0.3,0.3513 0.4,0.6023c0.2,0.3514 0.5,0.3514 0.9,0.3012c0.2,-0.753 0.4,-1.5059 0.55,-2.2588c0.1,-0.5522 0.35,-0.8534 0.9,-0.9538c0.95,-0.1506 1.8,-0.6023 2.65,-1.0541c0.55,-0.3012 1.15,-0.5521 1.8,-0.6023c1.05,-0.0502 2,0.1505 2.65,1.1043c0.05,0.1004 0.15,0.1506 0.25,0.251c0.3,0.1003 0.45,-0.1506 0.65,-0.251c0.95,-0.4016 1.9,-0.3012 2.7,0.4015c0.5,0.4016 0.95,0.8534 1.3,1.4055c0.65,1.0542 1.5,1.8573 2.45,2.6102c0.15,0.1004 0.25,0.2008 0.35,0.3012c0.6,0.502 0.7,0.8031 0.4,1.5561c-0.2,0.5019 -0.4,1.0039 -0.65,1.5561c0.3,0.1004 0.45,-0.0502 0.6,-0.1506c0.5,-0.251 1,-0.251 1.5,0c0.6,0.3012 1,0.7529 1.15,1.3051c0.15,0.5521 0.05,1.1043 -0.35,1.6062c-0.4,0.502 -0.9,0.8032 -1.45,1.004c-1.15,-0.1004 -1.85,-0.8032 -2.35,-1.8071c-0.2,0.3514 -0.35,0.6526 -0.5,0.9035c-0.2,0.3012 -0.4,0.6024 -0.35,0.9538c0.15,0.2007 0.35,0.2007 0.55,0.1506c0.4,-0.1004 0.75,-0.251 1.15,-0.3514c0.3,-0.0502 0.55,-0.0502 0.75,0.251c0.25,0.1505 0.4,0.2007 0.55,0.2509zM228.9,183.731c-3.1,-4.8188 -1.1,-10.491 3.8,-13.1012c2.45,-8.0816 2.65,-8.6337 2.7,-10.0392c-1.6,-0.1004 -3.2,-0.1004 -4.75,0.3012c-1.8,0.4517 -3.45,1.2549 -5,2.2588c-1.3,0.8533 -2.25,2.058 -2.85,3.4635c-1.25,2.9114 -1.7,5.9734 -1.85,9.1357c-0.05,1.1545 -0.1,2.309 -0.2,3.4635c-0.2,2.2589 -1.25,4.1663 -2.45,6.0236c-1.05,1.6062 -2.4,2.8611 -3.7,4.2164c-1.25,1.2549 -2.6,2.5098 -3.85,3.8149c-1.7,1.8071 -3.05,3.8149 -3.85,6.1742c-0.45,1.3552 -0.85,2.6603 -1.05,4.0658c-0.35,2.3091 -0.15,4.5679 0.85,6.6761c0.9,1.9577 2.25,3.6141 3.9,4.9694c1.6,1.3051 3.25,2.4094 5.1,3.3632c1.75,0.9035 3.5,1.7066 5.35,2.3592c1.45,0.5019 2.85,1.0039 4.3,1.5059c0.8,0.3011 1.6,0.5521 2.4,0.6525c1.5,0.2008 3,0.4518 4.5,0.5522c1.35,0.1004 2.7,0.1506 4.05,0.1004c1.65,-0.0502 3.25,-0.502 4.7,-1.3051c3.15,-1.7067 5.1,-4.4173 6.3,-7.7302c0.45,-1.2047 0.7,-2.4596 0.9,-3.7647c0.45,-3.2628 0.3,-6.5757 -0.1,-9.8385c-0.2,-1.4055 -0.55,-2.811 -0.55,-4.2666c0,-2.1585 0.15,-4.2165 1,-6.2244c0.7,-1.6564 1.5,-3.2627 2.4,-4.8188c1.25,-2.058 2.45,-4.1161 3.25,-6.4251c0.6,-1.7066 0.95,-3.4635 0.9,-5.2706c-0.05,-3.0619 -0.8,-5.8729 -3.15,-8.0313c-0.1,-0.1004 -0.15,-0.2008 -0.25,-0.251c-0.75,-0.8032 -1.6,-1.4557 -2.6,-1.9075c-0.9,-0.4015 -1.8,-0.7529 -2.7,-1.1545c-0.3,0.251 -0.3,0.5522 -0.4,0.8032c-0.3,1.0541 -0.55,2.1082 -0.85,3.1121c-0.1,0.4016 -0.25,0.8534 -0.4,1.2549c-0.35,1.4557 -0.65,2.9114 -1.1,4.3169c-0.25,0.8533 -0.3,1.6063 0.1,2.4094c0.55,1.1043 0.8,2.309 0.8,3.5137c0.05,2.6604 -0.9,4.9192 -2.8,6.8267c-0.5,0.5019 -1,0.9035 -1.55,1.3553c-0.35,0.251 -0.55,0.5521 -0.65,0.9537c-0.25,1.0039 -0.55,2.0078 -0.8,3.0118c-0.35,1.4055 -0.75,2.811 -1.1,4.1662c-0.25,0.9036 -0.45,1.7569 -0.7,2.7106c0.45,0.251 0.75,0.5522 0.85,1.0542c0.05,0.4015 0.35,0.7027 0.7,0.9035c0.4,0.251 0.8,0.5019 1.3,0.6023c0.75,0.2008 0.85,0.4016 0.8,1.1043c-0.05,0.3514 -0.05,0.7028 -0.1,1.0542c-0.15,0.7027 -0.3,1.4055 -1.1,1.8572c-0.45,-0.1004 -0.95,-0.1506 -1.45,-0.3012c-2.4,-0.7027 -4.85,-1.3553 -7.25,-2.1082c-2.7,-0.8031 -5.4,-1.7067 -8.1,-2.56c-0.3,-0.1004 -0.6,-0.2008 -0.9,-0.3514c-0.6,-0.3011 -0.7,-0.4517 -0.55,-1.1043c0.1,-0.5019 0.25,-1.0039 0.3,-1.5561c0.05,-0.3513 0.25,-0.6023 0.4,-0.8533c0.2,-0.4016 0.5,-0.502 0.9,-0.4016c0.15,0.0502 0.3,0.0502 0.45,0.1004c0.5,0.1506 1,0.1004 1.35,-0.2008c0.4,-0.3513 0.95,-0.3513 1.4,-0.5019c0.95,-3.2628 1.95,-6.7263 2.95,-10.1396zM265,105.3749c-0.45,-0.502 -0.8,-0.8533 -1.1,-1.2047c-0.25,-0.251 -0.4,-0.6024 -0.65,-0.8533c-0.3,-0.4016 -0.65,-0.8032 -1,-1.1545c-0.7,-0.6526 -1.3,-0.7028 -2.2,-0.251c-0.2,0.1004 -0.4,0.251 -0.6,0.3513c-0.5,0.251 -0.85,0.1506 -1.1,-0.3513c-0.05,-0.1004 -0.05,-0.251 -0.1,-0.3514c-0.25,-0.5522 -0.75,-0.8533 -1.35,-0.7529c-0.35,0.0502 -0.75,0.1004 -1.05,0.2007c-1.15,0.502 -2.25,1.004 -3.45,1.3553c-0.1,0.251 -0.15,0.502 -0.2,0.753c-0.5,2.2086 -0.8,4.4674 -1.2,6.7263c-0.4,2.2588 -0.6,4.618 -1.15,6.8768c-0.05,0.251 -0.25,0.502 -0.1,0.8533c2.55,0.6526 5.25,1.004 7.9,1.8573c2.5,-4.7184 5.05,-9.2863 7.35,-14.0549zM253.35,121.0361c-0.3,-0.1506 -0.6,-0.3514 -1,-0.2008c-0.05,0.2008 -0.15,0.4518 -0.25,0.7027c-0.4,1.2047 -0.65,2.4596 -1.05,3.7145c-0.55,1.6063 -1.05,3.2126 -1.4,4.8189c-0.3,1.1545 -0.65,2.309 -1.05,3.4635c-0.05,0.2008 -0.15,0.4016 -0.15,0.5522c-0.1,0.9537 -0.5,1.8572 -0.8,2.7607c-0.3,0.9036 -0.5,1.8573 -0.75,2.7608c-0.3,1.0541 -0.75,2.0581 -1,3.1122c-0.4,1.7067 -1,3.3631 -1.4,5.0698c-0.2,0.8533 -0.65,1.6565 -0.8,2.5098c-0.25,1.5059 -0.85,2.9114 -1.2,4.3671c-0.3,1.4054 -0.9,2.7105 -1.25,4.1662c-0.4,1.6063 -1,3.2126 -1.45,4.8188c-0.6,2.2087 -1.3,4.3671 -2,6.5255c0,0.0502 0,0.1506 0,0.251c0.2,0.251 0.5,0.3514 0.85,0.251c0.25,-0.1004 0.35,-0.3514 0.35,-0.6024c0.25,-1.6564 1,-3.2125 1.35,-4.869c0.25,-1.3051 0.8,-2.56 1.15,-3.9153c0.35,-1.4557 0.95,-2.9113 1.3,-4.367c0.35,-1.4557 0.95,-2.811 1.25,-4.2667c0.3,-1.3051 0.8,-2.6102 1.15,-3.9153c0.4,-1.6063 1,-3.1121 1.4,-4.7184c0.3,-1.3051 0.8,-2.5098 1.1,-3.8149c0.35,-1.4557 0.95,-2.9114 1.3,-4.3671c0.25,-1.1545 0.7,-2.309 1,-3.4635c0.4,-1.6063 1,-3.2126 1.45,-4.8188c0.6,-2.1083 1.25,-4.2165 1.9,-6.3247c0.05,0.0502 0,0 0,-0.2008zM254.4,121.4878c-0.35,0.9538 -0.75,1.8573 -0.95,2.7608c-0.55,2.1585 -1.2,4.3169 -1.85,6.4251c-0.6,2.0079 -1.1,4.1161 -1.85,6.0738c0,0.0501 -0.05,0.1003 -0.05,0.1003c-0.35,1.9577 -1.15,3.8149 -1.65,5.7726c-0.5,2.058 -1.2,4.0659 -1.85,6.0737c0,0.1004 -0.05,0.1506 -0.05,0.251c-0.35,1.8573 -1.05,3.6141 -1.55,5.4212c-0.55,2.1082 -1.25,4.1662 -1.85,6.2243c0,0.0502 -0.05,0.1004 -0.05,0.1004c-0.35,1.9576 -1.15,3.8149 -1.65,5.7725c-0.35,1.4055 -0.8,2.8612 -1.2,4.2667c-0.05,0.1004 0.05,0.2008 0.05,0.3012c0.25,0.1506 0.5,0.3011 0.85,0.0502c0.35,-1.0541 0.7,-2.1585 1,-3.313c0.35,-1.4055 0.9,-2.7608 1.2,-4.1662c0.35,-1.4557 0.85,-2.811 1.25,-4.2667c0.7,-2.3592 1.35,-4.7686 2.05,-7.1781c0.75,-2.56 1.55,-5.12 2.2,-7.7301c0.35,-1.4055 0.85,-2.7608 1.25,-4.1663c0.6,-2.0079 1,-4.0659 1.8,-5.9734c0.05,-0.1505 0.1,-0.3011 0.15,-0.4517c0.25,-1.6565 0.9,-3.2126 1.35,-4.869c0.6,-2.0581 1.05,-4.2165 1.85,-6.2244c0.15,-0.4517 0.2,-0.9035 0.15,-1.3552c-0.2,0.1003 -0.35,0 -0.6,0.1003zM250.5,120.2831c-0.1,0.3012 -0.15,0.5522 -0.25,0.753c-0.35,0.8031 -0.4,1.7066 -0.7,2.56c-0.7,2.058 -1.1,4.1663 -1.9,6.2243c-0.05,0.1004 -0.1,0.251 -0.1,0.3514c-0.2,1.6062 -0.95,3.0619 -1.25,4.618c-0.3,1.4557 -0.95,2.8612 -1.3,4.3671c-0.25,1.1545 -0.65,2.309 -1,3.4635c-0.5,1.7067 -0.95,3.4635 -1.55,5.1702c-0.6,1.7569 -0.9,3.5639 -1.6,5.2706c0,0.0502 -0.05,0.1004 -0.05,0.1004c-0.6,2.4094 -1.25,4.8188 -2.05,7.1278c-0.1,0.3514 -0.25,0.7028 -0.35,1.0541c-0.4,1.8573 -0.95,3.6141 -1.5,5.4212c-0.3,0.9537 -0.65,1.9075 -0.95,2.8612c-0.15,0.4016 0,0.7027 0.35,0.7529c0.4,0.0502 0.45,-0.2008 0.55,-0.5019c0.35,-1.2549 0.85,-2.5098 1.15,-3.8149c0.35,-1.6063 1.05,-3.1122 1.4,-4.7185c0.25,-1.0541 0.55,-2.1082 0.9,-3.1121c0.6,-1.9075 1.05,-3.8651 1.7,-5.7726c0.65,-1.807 0.95,-3.7145 1.65,-5.5215c0,-0.0502 0.05,-0.1004 0.05,-0.1004c0.25,-1.8573 1.15,-3.564 1.5,-5.4212c0.25,-1.2047 0.75,-2.3592 1.05,-3.5639c0.35,-1.4557 0.9,-2.811 1.25,-4.2667c0.35,-1.4055 0.85,-2.7608 1.25,-4.1161c0.6,-1.9576 1.05,-3.9655 1.75,-5.8729c0.35,-0.9537 0.6,-1.9075 0.75,-2.9114c0,-0.0502 -0.05,-0.1506 -0.1,-0.251c-0.1,0 -0.3,-0.0502 -0.65,-0.1506zM247.65,161.7953c0.35,-0.8533 0.45,-1.6565 0.7,-2.4596c0.5,-1.6063 0.9,-3.2628 1.4,-4.8188c0.35,-1.1044 0.65,-2.2589 0.9,-3.3632c0.3,-1.4055 0.8,-2.7608 1.1,-4.1662c0.3,-1.5059 0.8,-2.9114 1.25,-4.3671c0.05,-0.1506 0.1,-0.3012 0.15,-0.4518c0.2,-1.4055 0.75,-2.7608 1.1,-4.1662c0.4,-1.5059 0.8,-3.0118 1.3,-4.4675c0.9,-2.56 1.55,-5.2204 2.45,-7.7804c0.05,-0.1506 0.15,-0.3012 0.15,-0.4518c0.05,-0.9537 0.55,-1.8572 0.6,-2.8109c0,-0.3012 0.25,-0.6024 0.35,-0.9036c0.7,-1.5058 1.55,-2.9615 2.05,-4.618c0.05,-0.251 0.15,-0.4518 0.3,-0.6526c1,-1.4054 1.35,-2.2086 1.85,-3.9654c0.05,-0.1004 0.05,-0.251 0.15,-0.3012c0.7,-0.4518 0.85,-1.2549 1.25,-1.8573c0.3,-0.4517 0.25,-0.8031 -0.15,-1.2047c-0.8,1.6063 -1.65,3.1624 -2.35,4.8188c-0.1,0.2008 -0.2,0.4518 -0.3,0.6526c-1.25,1.9074 -2.2,3.9655 -3.25,5.9733c-0.2,0.4016 -0.4,0.8534 -0.45,1.3553c0,0.4016 -0.15,0.8032 -0.3,1.1545c-0.5,1.5059 -1,3.0118 -1.45,4.5679c-0.55,1.9074 -1.15,3.8149 -1.75,5.7223c-0.3,0.9036 -0.75,1.8071 -0.9,2.7608c-0.25,1.5561 -1.05,2.9616 -1.2,4.5177c-0.85,2.4094 -1.5,4.869 -2.15,7.3788c-0.35,1.3051 -0.8,2.6102 -1.15,3.9153c-0.3,1.2549 -0.75,2.5098 -1.1,3.8149c-0.5,1.7066 -0.95,3.4635 -1.5,5.1702c-0.05,0.2008 -0.2,0.4517 -0.1,0.7027c0.35,0.2008 0.6,0.3514 1.05,0.3012zM249.45,120.1827c-0.25,-0.1003 -0.35,-0.0502 -0.4,0.0502c-0.1,0.9036 -0.5,1.7067 -0.75,2.5098c-0.2,0.5522 -0.4,1.1546 -0.6,1.7067c-0.85,2.5098 -1.65,5.0196 -2.45,7.5294c-0.75,2.3592 -1.3,4.8188 -2.2,7.1279c-0.05,0.1004 -0.1,0.2509 -0.1,0.3513c-0.2,1.6565 -0.95,3.2126 -1.35,4.8691c-0.5,1.9074 -0.95,3.8651 -1.7,5.7725c-0.05,0.0502 -0.05,0.1506 -0.05,0.251c-0.4,1.8572 -0.95,3.7145 -1.55,5.5216c-0.4,1.2047 -0.75,2.4596 -1.1,3.6643c-0.55,1.8572 -1.05,3.7145 -1.6,5.5215c-0.5,1.5059 -0.9,3.062 -1.35,4.6181c0,0.0502 0.05,0.1506 0.1,0.251c0.2,0.1004 0.4,0.2509 0.7,0.1004c0.05,-0.1004 0.15,-0.251 0.15,-0.4016c0.2,-0.8032 0.4,-1.6063 0.65,-2.4094c0.25,-0.8032 0.45,-1.6063 0.65,-2.4094c0.35,-1.2549 0.8,-2.5098 1.1,-3.8149c0.3,-1.2549 0.7,-2.56 1.1,-3.8149c0.65,-2.1083 1.25,-4.2165 1.85,-6.3248c0.55,-1.807 1.1,-3.5639 1.55,-5.4211c0.35,-1.5561 1,-3.062 1.35,-4.6181c0.3,-1.1545 0.7,-2.2588 1,-3.4635c0.35,-1.4557 0.9,-2.811 1.25,-4.2667c0.25,-1.2047 0.9,-2.309 1,-3.5639c0.8,-1.9576 1.1,-4.1161 1.85,-6.0737c0.45,-1.0541 0.6,-2.1584 0.9,-3.2628zM256.9,122.0902c-0.75,-0.3012 -0.85,-0.251 -0.95,0.3012c-0.1,0.4015 -0.2,0.7529 -0.3,1.1545c-0.3,0.9035 -0.65,1.7568 -0.85,2.6604c-0.35,1.6564 -0.95,3.2125 -1.35,4.869c-0.5,2.058 -1.2,4.0659 -1.85,6.1239c0,0.1004 -0.05,0.1506 -0.05,0.251c-0.3,1.7569 -0.95,3.3631 -1.4,5.0698c-0.5,1.9075 -1.1,3.7647 -1.7,5.622c0,0.1004 -0.05,0.1505 -0.05,0.2509c-0.25,1.6565 -0.95,3.2126 -1.35,4.8691c-0.35,1.5058 -0.95,2.9615 -1.3,4.5176c-0.25,1.1043 -0.7,2.2086 -0.95,3.3631c-0.3,1.2549 -0.75,2.4597 -1.05,3.6644c-0.55,2.058 -1.2,4.0658 -1.8,6.1239c-0.05,0.2008 -0.2,0.4517 -0.1,0.7027c0.2,0.2008 0.3,0.502 0.65,0.4016c0.05,-0.1004 0.15,-0.2008 0.15,-0.3012c0.5,-1.4557 0.85,-3.0117 1.25,-4.5176c0.3,-1.2047 0.65,-2.4094 0.95,-3.564c0.6,-2.309 1.25,-4.618 1.95,-6.927c0.5,-1.7067 0.9,-3.4133 1.45,-5.0698c0.1,-0.4016 0.3,-0.753 0.35,-1.1545c0.1,-0.9537 0.45,-1.8573 0.8,-2.7608c0.35,-0.9035 0.45,-1.8573 0.75,-2.7608c0.55,-1.6565 1.05,-3.3631 1.5,-5.0698c0.1,-0.4016 0.3,-0.8031 0.35,-1.2549c0.2,-1.4055 0.95,-2.6604 1.1,-4.0659c1,-2.6102 1.6,-5.371 2.55,-8.0314c0.5,-1.5058 1,-2.9113 1.25,-4.4674zM235.65,185.9898c0.75,0.1506 0.85,0.1506 1.05,-0.3514c0.25,-0.6525 0.5,-1.3051 0.6,-1.9576c0.3,-1.6565 0.95,-3.2126 1.35,-4.869c0.45,-1.9075 1.1,-3.7647 1.65,-5.622c0,-0.0502 0.05,-0.1004 0.05,-0.1004c0.15,-0.5521 0,-0.7027 -0.6,-0.7027c-0.1,0 -0.25,0.0502 -0.35,0.1004c-0.4,0.5521 -0.35,1.2549 -0.55,1.8572c-0.4,1.3051 -0.75,2.6102 -1.15,3.9153c-0.65,2.1082 -1.15,4.2667 -1.9,6.3247c-0.1,0.251 -0.15,0.4518 -0.2,0.7028c-0.05,0.1505 -0.1,0.4015 0.05,0.7027zM229.4,182.1247c0.4,-0.502 0.3,-1.1043 0.45,-1.6565c0.6,-2.0078 1.2,-4.0658 1.85,-6.0737c0.1,-0.3514 0.25,-0.6525 0.35,-1.0039c0.05,-0.1506 0.05,-0.3012 0.05,-0.4518c0,-0.1004 0.1,-0.3012 -0.15,-0.3513c-0.8,0.6525 -1.55,1.4054 -2.1,2.2588c-1,1.5059 -1.35,3.2125 -1.25,4.9694c0,0.8031 0.2,1.6063 0.8,2.309zM238.85,185.7388c0.7,-1.4557 0.9,-2.9615 1.3,-4.4172c0.45,-1.5561 0.8,-3.1624 1.25,-4.7185c0.2,-0.7529 0.35,-1.4556 0.55,-2.2086c0.1,-0.4518 -0.15,-0.7529 -0.7,-0.9035c-0.15,0.4517 -0.35,0.9537 -0.45,1.4557c-0.05,0.3011 -0.1,0.6525 -0.2,0.9537c-0.4,1.3553 -0.85,2.6604 -1.2,4.0157c-0.45,1.8572 -1.1,3.6643 -1.65,5.5215c-0.05,0.2008 -0.2,0.3514 0,0.5522c0.4,0.0502 0.7,-0.2008 1.1,-0.251zM238.3,171.9851c-0.75,-0.2008 -0.8,-0.2008 -1,0.3514c-0.15,0.4517 -0.35,0.9035 -0.45,1.3553c-0.4,1.9074 -1.1,3.7145 -1.6,5.6219c-0.5,1.9577 -1.15,3.9153 -1.75,5.873c0,0.0502 0.05,0.1506 0.05,0.2509c0.2,0.2008 0.45,0.3514 0.75,0.2008c0.35,-1.0039 0.75,-1.9576 1.05,-2.9615c0.6,-2.0079 1.05,-4.0157 1.7,-5.9734c0.5,-1.5059 0.8,-3.0117 1.3,-4.4674c0,-0.1004 0,-0.1004 -0.05,-0.251zM238.5,187.2949c-0.35,0 -0.55,0 -0.7,0.0502c-0.2,0 -0.4,0.0502 -0.65,0.3514c-0.8,2.8611 -1.65,5.8227 -2.5,8.7843c0.65,0.3514 0.65,0.4016 1.3,0.4016c0.8,-3.1122 1.65,-6.2746 2.55,-9.5875zM236.4,171.5835c-0.25,-0.3011 -0.5,-0.251 -0.75,-0.1004c-0.25,0.3012 -0.35,0.7028 -0.45,1.1044c-0.25,1.4556 -0.8,2.8611 -1.15,4.2666c-0.55,2.0079 -1.2,3.9655 -1.8,5.9734c-0.15,0.5521 -0.45,1.1043 -0.45,1.7066c0.2,0.2008 0.3,0.4016 0.6,0.4016c0.2,-0.1004 0.25,-0.3012 0.3,-0.502c0.3,-0.8031 0.4,-1.6564 0.65,-2.4094c0.5,-1.5059 0.9,-3.0619 1.35,-4.618c0.55,-1.8573 1.1,-3.6643 1.65,-5.5216c0.1,-0.0502 0.05,-0.2008 0.05,-0.3012zM233.5,171.6337c-0.3,1.8573 -1,3.6141 -1.5,5.371c-0.55,1.8573 -1,3.7647 -1.65,5.622c-0.25,0.6525 -0.2,0.7027 0.55,1.2047c0.2,-0.5522 0.45,-1.1043 0.6,-1.7067c0.6,-2.3592 1.3,-4.6682 2,-6.9772c0.35,-1.2048 0.7,-2.4597 1.05,-3.6644c0.05,-0.1004 0,-0.1506 -0.15,-0.2007c-0.05,0 -0.2,0 -0.3,0.0501c-0.25,0.1004 -0.4,0.2008 -0.6,0.3012zM240.45,184.3835c2.8,-2.2588 3.45,-6.2243 2.3,-8.8345c-0.75,2.6102 -1.45,5.12 -2.15,7.6298c-0.1,0.3514 -0.1,0.753 -0.15,1.2047zM235.05,187.3953c-0.75,2.4596 -2.55,8.2322 -2.45,8.5333c0.3,0.1506 0.6,0.3514 0.95,0.2008c0.45,-1.4557 0.95,-2.8612 1.25,-4.2667c0.35,-1.4556 1,-2.8611 1.1,-4.3168c-0.2,-0.251 -0.5,-0.1506 -0.85,-0.1506zM227.75,194.5733c0.05,-0.1506 0.15,-0.2509 0.15,-0.3513c0.65,-2.3091 1.35,-4.6181 2,-6.9271c0.15,-0.5522 0.3,-1.1545 0.5,-1.7569c0.1,-0.4517 -0.1,-0.6525 -0.5,-0.7529c-0.35,0.6525 -2.7,8.6337 -2.9,9.738c0.2,0.1506 0.4,0.1506 0.75,0.0502zM231.5,195.5271c0.2,-1.004 0.55,-1.9075 0.85,-2.8612c0.3,-0.9035 0.55,-1.8071 0.8,-2.7608c0.25,-0.9537 0.75,-1.8573 0.7,-2.811c-0.25,-0.2008 -0.45,-0.3514 -0.7,-0.1506c-0.6,1.3553 -2.3,7.4792 -2.45,8.4832c0.2,0.1506 0.4,0.2008 0.8,0.1004zM229.5,195.0251c0.7,-1.6063 2.45,-7.7302 2.45,-8.7341c-0.15,-0.1004 -0.3,-0.251 -0.6,-0.1004c-0.75,2.8612 -1.8,5.7725 -2.5,8.7341c0.25,0.2008 0.45,0.2008 0.65,0.1004zM267.65,110.9969c0.4,0.1506 0.9,-0.1004 1.15,-0.6024c0.2,-0.4016 -0.2,-1.0541 -0.7,-1.2047c-0.3,-0.1004 -0.8,0.251 -1,0.6526c-0.2,0.4517 0.05,0.9537 0.55,1.1545zM267.05,114.0086c0.05,-0.2008 0,-0.4517 -0.2,-0.7027c-0.2,-0.251 -0.5,-0.251 -0.75,-0.1506c-0.3,0.1004 -0.55,0.5522 -0.5,0.8533c0.05,0.4518 0.4,0.9036 0.7,0.8534c0.4,-0.0502 0.6,-0.3514 0.75,-0.7028c-0.05,0 -0.05,-0.0502 0,-0.1506zM264.75,118.2251c0.2,-0.4518 0.05,-0.8533 -0.3,-1.1545c-0.15,-0.1004 -0.3,-0.1506 -0.45,-0.1004c-0.35,0.1506 -0.6,0.4016 -0.65,0.8031c-0.05,0.4016 0.3,0.8534 0.7,0.9538c0.3,0.1004 0.55,-0.1004 0.7,-0.502zM264.9,108.6878c0.4,0.1004 0.45,-0.1505 0.6,-0.3011c0.45,-0.6024 0.7,-1.3051 0.85,-2.0581c0,-0.1004 -0.1,-0.2008 -0.25,-0.3513c-0.35,0.6023 -0.65,1.1043 -0.95,1.7066c-0.1,0.251 -0.3,0.5522 -0.25,1.0039zM248.25,109.2902c0.15,-0.3514 -0.1,-0.9035 -0.4,-1.0039c-0.3,-0.1004 -0.7,0.0502 -0.85,0.3012c-0.2,0.4015 0,0.9035 0.45,1.0541c0.25,0.1004 0.7,-0.0502 0.8,-0.3514zM248,105.4753c0.3,0.1004 0.65,-0.1004 0.8,-0.502c0.15,-0.3513 0,-0.7027 -0.4,-0.8533c-0.3,-0.1004 -0.65,0.1004 -0.8,0.502c-0.1,0.3011 0.1,0.7027 0.4,0.8533zM246.65,112.6533c-0.4,0.6526 -0.4,0.8534 0,1.2549c0.2,0.1506 0.45,0.1506 0.6,-0.0502c0.25,-0.2509 0.25,-0.6023 0.05,-0.8533c-0.1,-0.1506 -0.3,-0.3012 -0.65,-0.3514zM257.45,120.8353c0,-0.0502 0.05,-0.1506 0,-0.2008c-0.15,-0.251 -0.5,-0.4016 -0.8,-0.3012c-0.05,0 -0.15,0.1004 -0.15,0.1506c0,0.1004 0,0.251 0.05,0.3012c0.2,0.2008 0.45,0.3012 0.75,0.2008c0.05,0 0.1,-0.1004 0.15,-0.1506zM253.05,119.8816c0.25,0.0502 0.55,0.2008 0.75,-0.1004c0.05,-0.0502 0.05,-0.1506 0,-0.251c-0.15,-0.251 -0.4,-0.251 -0.6,-0.251c-0.1,0 -0.15,0 -0.25,0c-0.1,0.0502 -0.2,0.1004 -0.2,0.251c0,0.0502 0.05,0.1506 0.1,0.2008c0.05,0.0502 0.15,0.1004 0.2,0.1506zM250.85,118.9278c-0.1,0.2008 -0.05,0.4016 0.15,0.502c0.2,0.1004 0.45,0.2008 0.65,0.0502c0.05,-0.0502 0.1,-0.1004 0.1,-0.2008c0,-0.0502 0,-0.2008 -0.05,-0.2008c-0.25,-0.1506 -0.5,-0.3011 -0.85,-0.1506zM255,120.3333c0.05,0 0.1,0.0502 0.1,0.0502c0.2,0.0502 0.4,0.0502 0.45,-0.2008c0.05,-0.2509 -0.15,-0.3513 -0.35,-0.4015c-0.1,-0.0502 -0.2,-0.0502 -0.35,0c-0.05,0 -0.1,0.0502 -0.15,0.1506c-0.1,0.1004 0,0.2007 0.05,0.3011c0.1,0.0502 0.2,0.0502 0.25,0.1004zM249.95,118.8776c0,-0.1505 0.05,-0.3513 -0.15,-0.4015c-0.2,-0.1004 -0.25,0.1004 -0.35,0.251c-0.05,0.1505 -0.1,0.3011 0.1,0.4015c0.25,0.0502 0.3,-0.1004 0.4,-0.251z" fill="#000000"/><path d="M267.75,112.5529c-0.15,-0.0502 -0.35,-0.1004 -0.4,-0.2509c-0.2,-0.3012 -0.45,-0.3012 -0.75,-0.251c-0.4,0.1004 -0.75,0.2008 -1.15,0.3514c-0.2,0.0501 -0.4,0.0501 -0.55,-0.1506c-0.05,-0.4016 0.15,-0.6526 0.35,-0.9538c0.2,-0.2509 0.3,-0.5521 0.5,-0.9035c0.5,1.0039 1.2,1.7067 2.35,1.8071c-0.1,0.1506 -0.2,0.2509 -0.35,0.3513z" fill="#e7e7e6"/><path d="M228.9,183.731c-1,3.4133 -2,6.8768 -3,10.3906c-0.5,0.1004 -1,0.1004 -1.4,0.5019c-0.35,0.3012 -0.9,0.3514 -1.35,0.2008c-0.15,-0.0502 -0.3,-0.1004 -0.45,-0.1004c-0.4,-0.1004 -0.7,0 -0.9,0.4016c-0.15,0.3012 -0.35,0.5521 -0.4,0.8533c-0.1,0.502 -0.2,1.0039 -0.3,1.5561c-0.15,0.6526 -0.05,0.8533 0.55,1.1043c0.3,0.1506 0.6,0.251 0.9,0.3514c2.7,0.8533 5.4,1.7067 8.1,2.56c2.4,0.7529 4.85,1.4055 7.25,2.1082c0.5,0.1506 1,0.2008 1.45,0.3012c0.75,-0.4518 0.95,-1.1545 1.1,-1.8573c0.05,-0.3513 0.1,-0.7027 0.1,-1.0541c0.05,-0.7027 -0.05,-0.9035 -0.8,-1.1043c-0.5,-0.1004 -0.85,-0.4016 -1.3,-0.6023c-0.35,-0.2008 -0.7,-0.502 -0.7,-0.9036c-0.05,-0.5521 -0.4,-0.8533 -0.85,-1.0541c0.25,-0.9537 0.5,-1.8572 0.7,-2.7106c0.35,-1.4055 0.75,-2.811 1.1,-4.1662c0.25,-1.004 0.55,-2.0079 0.8,-3.0118c0.1,-0.4016 0.3,-0.7028 0.65,-0.9537c0.55,-0.4016 1.05,-0.8534 1.55,-1.3553c1.9,-1.8573 2.8,-4.1663 2.8,-6.8267c0,-1.2047 -0.25,-2.4094 -0.8,-3.5137c-0.4,-0.8032 -0.4,-1.5561 -0.1,-2.4094c0.45,-1.4055 0.75,-2.8612 1.1,-4.3169c0.1,-0.4518 0.25,-0.8533 0.4,-1.2549c0.3,-1.0541 0.55,-2.1082 0.85,-3.1122c0.05,-0.2509 0.1,-0.5521 0.4,-0.8031c0.9,0.3514 1.8,0.7027 2.7,1.1545c1,0.4518 1.85,1.1043 2.6,1.9075c0.1,0.1004 0.15,0.2007 0.25,0.2509c2.35,2.1585 3.1,4.9193 3.15,8.0314c0.05,1.8573 -0.3,3.5639 -0.9,5.2706c-0.8,2.309 -2,4.3671 -3.25,6.4251c-0.95,1.5561 -1.75,3.1624 -2.4,4.8188c-0.85,2.0079 -1,4.1161 -1,6.2243c0,1.4557 0.35,2.8612 0.55,4.2667c0.45,3.2628 0.6,6.5255 0.1,9.8384c-0.2,1.2549 -0.45,2.56 -0.9,3.7647c-1.2,3.313 -3.15,6.0236 -6.3,7.7302c-1.45,0.8032 -3.05,1.2549 -4.7,1.3051c-1.35,0.0502 -2.7,0 -4.05,-0.1004c-1.5,-0.1505 -3,-0.4015 -4.5,-0.5521c-0.85,-0.1004 -1.65,-0.3514 -2.4,-0.6526c-1.45,-0.5019 -2.85,-1.0039 -4.3,-1.5058c-1.85,-0.6526 -3.6,-1.4557 -5.35,-2.3593c-1.8,-0.9537 -3.5,-2.058 -5.1,-3.3631c-1.7,-1.3553 -3,-3.0118 -3.9,-4.9694c-1,-2.1082 -1.25,-4.3671 -0.85,-6.6761c0.2,-1.4055 0.6,-2.7106 1.05,-4.0659c0.8,-2.3592 2.15,-4.367 3.85,-6.1741c1.25,-1.3051 2.55,-2.5098 3.85,-3.8149c1.3,-1.3051 2.7,-2.6102 3.7,-4.2165c1.2,-1.8572 2.3,-3.7647 2.45,-6.0235c0.1,-1.1545 0.15,-2.309 0.2,-3.4635c0.1,-3.1624 0.6,-6.2243 1.85,-9.1357c0.6,-1.4055 1.55,-2.6102 2.85,-3.4635c1.55,-1.004 3.2,-1.8071 5,-2.2589c1.55,-0.4015 3.15,-0.4517 4.75,-0.3011c-0.1,1.4055 -0.25,2.0078 -2.7,10.0392c-4.85,2.3592 -6.85,8.0816 -3.75,12.8502zM209.75,211.4392c0.3,-0.3012 0.4,-0.5521 0.25,-0.9035c-0.2,-0.5522 -0.4,-1.1043 -0.6,-1.7067c-0.5,-1.3553 -0.65,-2.811 -0.65,-4.2165c0,-0.9537 0.05,-1.9074 0.25,-2.8109c0.35,-1.5059 1,-2.9114 1.9,-4.2165c0.3,-0.4518 0.45,-0.9035 0.55,-1.3553c-0.2,-0.3514 -0.45,-0.4016 -0.65,-0.251c-0.25,0.1506 -0.5,0.3012 -0.65,0.5522c-0.6,0.9537 -1.2,1.8572 -1.6,2.9114c-0.4,1.1043 -0.75,2.2588 -1,3.4133c-0.25,1.1043 -0.25,2.2086 -0.3,3.3129c0.4,1.6565 0.85,3.313 1.65,4.8189c0.15,0.3011 0.4,0.4015 0.85,0.4517zM231.2,162.8494c-0.35,-0.6023 -0.4,-0.6525 -0.85,-0.5019c-0.25,0.0501 -0.45,0.2007 -0.65,0.2509c-1.65,0.4518 -3.05,1.3553 -4.15,2.6102c-0.4,0.4016 -0.75,0.9036 -0.95,1.4557c-0.2,0.6526 0.1,1.0039 0.8,0.9035c0.45,-0.0502 0.75,-0.3011 0.9,-0.7027c0.25,-0.7027 0.8,-1.1545 1.4,-1.5561c0.8,-0.6023 1.6,-1.1545 2.5,-1.5561c0.4,-0.2007 0.75,-0.4517 1,-0.9035zM224.95,169.4251c-0.85,-0.1506 -1.25,0.1506 -1.5,0.9035c-0.2,0.7028 -0.35,1.3553 -0.3,2.1083c0.1,0.8533 0.35,1.0039 1.2,0.6023c0.05,-0.0502 0.1,-0.1004 0.25,-0.2008c-0.1,-1.1043 0.4,-2.2086 0.35,-3.4133z" fill="#dec6a3"/><path d="M264.9,105.3749c-2.25,4.7686 -4.85,9.3867 -7.25,14.0549c-2.65,-0.8533 -5.35,-1.2047 -7.9,-1.8573c-0.15,-0.3513 0.05,-0.6023 0.1,-0.8533c0.55,-2.2588 0.75,-4.618 1.15,-6.8768c0.4,-2.2589 0.7,-4.5177 1.2,-6.7263c0.05,-0.251 0.1,-0.502 0.2,-0.753c1.2,-0.3513 2.3,-0.8533 3.45,-1.3553c0.3,-0.1003 0.7,-0.1505 1.05,-0.2007c0.6,-0.1004 1.1,0.2007 1.35,0.7529c0.05,0.1004 0.05,0.251 0.1,0.3514c0.25,0.5019 0.6,0.6023 1.1,0.3513c0.2,-0.1003 0.4,-0.2509 0.6,-0.3513c0.9,-0.4518 1.5,-0.4016 2.2,0.251c0.35,0.3513 0.7,0.7529 1,1.1545c0.25,0.2509 0.4,0.6023 0.65,0.8533c0.3,0.3514 0.65,0.7027 1,1.2047zM251.75,116.4682c0,-0.7529 0.2,-1.4557 0.25,-2.2086c0.05,-0.502 0.4,-1.1545 -0.1,-1.7067c-0.2,0.0502 -0.45,0.1004 -0.55,0.3514c-0.15,0.3012 -0.25,0.6526 -0.3,1.0039c-0.05,0.6024 0,1.2549 -0.2,1.8573c-0.15,0.4518 -0.1,0.9035 0.2,1.2549c0.6,-0.1004 0.7,-0.1506 0.7,-0.5522z" fill="#dec6a3"/><path d="M253.35,121.0361c0,0.1506 0.05,0.251 0,0.3012c-0.65,2.1082 -1.3,4.2164 -1.9,6.3247c-0.45,1.6062 -1,3.2125 -1.45,4.8188c-0.3,1.1545 -0.75,2.309 -1,3.4635c-0.35,1.5059 -0.95,2.9114 -1.3,4.3671c-0.3,1.3051 -0.8,2.5098 -1.1,3.8149c-0.4,1.6062 -1,3.1121 -1.4,4.7184c-0.35,1.3051 -0.85,2.6102 -1.15,3.9153c-0.3,1.4557 -0.9,2.811 -1.25,4.2667c-0.35,1.5058 -0.95,2.9113 -1.3,4.367c-0.3,1.3051 -0.9,2.6102 -1.15,3.9153c-0.35,1.6565 -1.1,3.1624 -1.35,4.869c-0.05,0.251 -0.1,0.502 -0.35,0.6024c-0.35,0.1506 -0.6,0.0502 -0.85,-0.251c0,-0.1004 -0.05,-0.2008 0,-0.251c0.65,-2.1584 1.4,-4.367 2,-6.5255c0.45,-1.6062 1.05,-3.2125 1.45,-4.8188c0.35,-1.4055 0.9,-2.7608 1.25,-4.1663c0.35,-1.5058 0.95,-2.8611 1.2,-4.367c0.15,-0.8533 0.55,-1.6565 0.8,-2.5098c0.45,-1.7067 1,-3.3632 1.4,-5.0698c0.25,-1.0541 0.65,-2.0581 1,-3.1122c0.3,-0.9035 0.5,-1.8572 0.75,-2.7608c0.3,-0.9035 0.65,-1.807 0.8,-2.7607c0,-0.2008 0.1,-0.4016 0.15,-0.5522c0.4,-1.1545 0.75,-2.2588 1.05,-3.4635c0.4,-1.6063 0.9,-3.2628 1.4,-4.8189c0.4,-1.2047 0.65,-2.4596 1.05,-3.7145c0.1,-0.2509 0.2,-0.5019 0.25,-0.7027c0.4,-0.251 0.65,-0.0502 1,0.1004z" fill="#806f5b"/><path d="M254.4,121.4878c0.25,-0.1003 0.4,0 0.55,0.1004c0.05,0.4518 0,0.9036 -0.15,1.3553c-0.75,2.0079 -1.25,4.1161 -1.85,6.2243c-0.45,1.6063 -1.1,3.1624 -1.35,4.8691c0,0.1506 -0.1,0.3011 -0.15,0.4517c-0.75,1.9577 -1.2,4.0157 -1.8,5.9734c-0.4,1.4055 -0.85,2.7607 -1.25,4.1662c-0.7,2.6102 -1.5,5.1702 -2.2,7.7302c-0.7,2.3592 -1.35,4.7687 -2.05,7.1781c-0.4,1.4055 -0.9,2.811 -1.25,4.2666c-0.35,1.4055 -0.9,2.7608 -1.2,4.1663c-0.25,1.1545 -0.6,2.2086 -1,3.313c-0.3,0.2007 -0.55,0.0501 -0.85,-0.0502c0,-0.1004 -0.05,-0.2008 -0.05,-0.3012c0.4,-1.4055 0.85,-2.8612 1.2,-4.2667c0.5,-1.9576 1.3,-3.7647 1.65,-5.7725c0,-0.0502 0,-0.1004 0.05,-0.1004c0.65,-2.0581 1.3,-4.1161 1.85,-6.2243c0.5,-1.8071 1.2,-3.564 1.55,-5.4212c0,-0.1004 0.05,-0.1506 0.05,-0.251c0.6,-2.0078 1.35,-4.0157 1.85,-6.0737c0.45,-1.9577 1.3,-3.7647 1.65,-5.7726c0,-0.0502 0,-0.1004 0.05,-0.1004c0.75,-2.0078 1.25,-4.0658 1.85,-6.0737c0.65,-2.1584 1.3,-4.2667 1.85,-6.4251c0.3,-1.1545 0.7,-2.0078 1,-2.9616z" fill="#806e5b"/><path d="M250.5,120.2831c0.35,0.1004 0.55,0.1506 0.7,0.2008c0.05,0.1004 0.1,0.2008 0.1,0.251c-0.2,1.0039 -0.4,1.9576 -0.75,2.9114c-0.7,1.9074 -1.15,3.9153 -1.75,5.8729c-0.4,1.3553 -0.9,2.7608 -1.25,4.1161c-0.35,1.4557 -0.9,2.811 -1.25,4.2667c-0.3,1.2047 -0.8,2.3592 -1.05,3.5639c-0.35,1.8572 -1.25,3.5639 -1.5,5.4212c0,0.0502 0,0.1004 -0.05,0.1004c-0.7,1.807 -1,3.7145 -1.65,5.5215c-0.7,1.9075 -1.1,3.8651 -1.7,5.7726c-0.35,1.0039 -0.65,2.058 -0.9,3.1121c-0.35,1.6063 -1,3.1122 -1.4,4.7185c-0.3,1.3051 -0.75,2.5098 -1.15,3.8149c-0.1,0.2509 -0.15,0.5521 -0.55,0.5019c-0.35,-0.0502 -0.5,-0.3514 -0.35,-0.7529c0.3,-0.9537 0.65,-1.9075 0.95,-2.8612c0.55,-1.8071 1.1,-3.6141 1.5,-5.4212c0.1,-0.3513 0.2,-0.7027 0.35,-1.0541c0.8,-2.3592 1.45,-4.7686 2.05,-7.1278c0,-0.0502 0,-0.1004 0.05,-0.1004c0.7,-1.7067 1,-3.5639 1.6,-5.2706c0.6,-1.7067 1,-3.4635 1.55,-5.1702c0.35,-1.1545 0.75,-2.309 1,-3.4635c0.35,-1.5059 1,-2.9114 1.3,-4.3671c0.3,-1.5561 1.05,-3.0118 1.25,-4.618c0,-0.1004 0.05,-0.251 0.1,-0.3514c0.8,-2.0079 1.15,-4.1663 1.9,-6.2243c0.3,-0.8032 0.35,-1.7067 0.7,-2.56c0,-0.251 0.1,-0.502 0.2,-0.8032z" fill="#746254"/><path d="M247.65,161.7953c-0.45,0.0502 -0.7,-0.1004 -0.95,-0.3012c-0.15,-0.251 0,-0.5019 0.1,-0.7027c0.55,-1.7067 1,-3.4636 1.5,-5.1702c0.35,-1.2549 0.8,-2.5098 1.1,-3.8149c0.3,-1.3051 0.8,-2.6102 1.15,-3.9153c0.65,-2.4596 1.3,-4.9694 2.15,-7.3788c0.15,-1.5561 0.95,-2.9616 1.2,-4.5177c0.15,-0.9537 0.6,-1.807 0.9,-2.7608c0.6,-1.9074 1.2,-3.8149 1.75,-5.7223c0.45,-1.5561 0.95,-3.062 1.45,-4.5679c0.1,-0.4015 0.25,-0.7529 0.3,-1.1545c0,-0.5019 0.2,-0.9537 0.45,-1.3553c1.05,-2.0078 2,-4.1161 3.25,-5.9733c0.15,-0.2008 0.25,-0.4016 0.3,-0.6526c0.7,-1.6564 1.5,-3.2125 2.35,-4.8188c0.4,0.4016 0.45,0.753 0.15,1.2047c-0.45,0.6024 -0.6,1.4055 -1.25,1.8573c-0.1,0.0502 -0.15,0.2008 -0.15,0.3012c-0.5,1.7568 -0.85,2.5098 -1.85,3.9654c-0.15,0.2008 -0.2,0.4016 -0.3,0.6526c-0.5,1.6063 -1.35,3.062 -2.05,4.618c-0.15,0.3012 -0.35,0.6024 -0.35,0.9036c-0.1,0.9537 -0.6,1.8572 -0.6,2.8109c0,0.1506 -0.1,0.3012 -0.15,0.4518c-0.85,2.56 -1.55,5.2204 -2.45,7.7804c-0.5,1.4557 -0.9,2.9616 -1.3,4.4675c-0.35,1.4054 -0.9,2.7105 -1.1,4.1662c0,0.1506 -0.1,0.3012 -0.15,0.4518c-0.4,1.4557 -0.95,2.9114 -1.25,4.3671c-0.3,1.4054 -0.8,2.7607 -1.1,4.1662c-0.25,1.1043 -0.55,2.2588 -0.9,3.3632c-0.5,1.6062 -0.9,3.2627 -1.4,4.8188c-0.35,0.8031 -0.45,1.6565 -0.8,2.4596z" fill="#806e5b"/><path d="M249.45,120.1827c-0.25,1.1044 -0.45,2.2087 -0.85,3.2628c-0.75,2.0078 -1.1,4.1161 -1.85,6.0737c-0.15,1.2549 -0.75,2.3592 -1,3.5639c-0.3,1.4557 -0.9,2.811 -1.25,4.2667c-0.3,1.1545 -0.7,2.309 -1,3.4635c-0.35,1.5561 -1,3.062 -1.35,4.6181c-0.45,1.807 -1,3.6141 -1.55,5.4211c-0.65,2.1083 -1.2,4.2165 -1.85,6.3248c-0.4,1.2549 -0.8,2.5098 -1.1,3.8149c-0.3,1.3051 -0.8,2.5098 -1.1,3.8149c-0.2,0.8031 -0.4,1.6062 -0.65,2.4094c-0.25,0.8031 -0.45,1.6062 -0.65,2.4094c-0.05,0.1506 -0.1,0.3012 -0.15,0.4016c-0.3,0.1505 -0.5,0 -0.7,-0.1004c-0.05,-0.1004 -0.1,-0.2008 -0.1,-0.251c0.45,-1.5561 0.9,-3.062 1.35,-4.6181c0.6,-1.807 1.05,-3.6643 1.6,-5.5215c0.35,-1.2047 0.75,-2.4596 1.1,-3.6643c0.55,-1.8573 1.1,-3.6644 1.55,-5.5216c0,-0.1004 0.05,-0.1506 0.05,-0.251c0.7,-1.8572 1.2,-3.8149 1.7,-5.7725c0.4,-1.6063 1.15,-3.1624 1.35,-4.8691c0,-0.1004 0.05,-0.2509 0.1,-0.3513c0.9,-2.3091 1.45,-4.7687 2.2,-7.1279c0.8,-2.5098 1.6,-5.0196 2.45,-7.5294c0.2,-0.5521 0.4,-1.1043 0.6,-1.7067c0.25,-0.8533 0.65,-1.6564 0.75,-2.5098c-0.05,-0.1004 0.1,-0.2007 0.35,-0.0502z" fill="#746253"/><path d="M256.9,122.0902c-0.25,1.5561 -0.75,2.9616 -1.25,4.3671c-0.95,2.6603 -1.55,5.3709 -2.55,8.0313c-0.1,1.4055 -0.85,2.6604 -1.1,4.0659c-0.05,0.4016 -0.25,0.8031 -0.35,1.2549c-0.45,1.7067 -0.95,3.4133 -1.5,5.0698c-0.3,0.9035 -0.4,1.8573 -0.75,2.7608c-0.35,0.9035 -0.7,1.8071 -0.8,2.7608c-0.05,0.4016 -0.25,0.7529 -0.35,1.1545c-0.55,1.6565 -1,3.3631 -1.45,5.0698c-0.65,2.309 -1.35,4.618 -1.95,6.9271c-0.3,1.2047 -0.65,2.4094 -0.95,3.5639c-0.4,1.5059 -0.7,3.0619 -1.25,4.5176c-0.05,0.1004 -0.1,0.2008 -0.15,0.3012c-0.35,0.1004 -0.5,-0.2008 -0.65,-0.4016c-0.1,-0.2509 0.05,-0.4517 0.1,-0.7027c0.6,-2.0581 1.3,-4.0659 1.8,-6.1239c0.3,-1.2549 0.8,-2.4596 1.05,-3.6643c0.25,-1.1546 0.7,-2.2087 0.95,-3.3632c0.35,-1.5561 1,-2.9616 1.3,-4.5176c0.35,-1.6565 1.1,-3.1624 1.35,-4.8691c0,-0.1003 0.05,-0.1505 0.05,-0.2509c0.55,-1.8573 1.2,-3.7145 1.7,-5.622c0.45,-1.7067 1.1,-3.3631 1.4,-5.0698c0,-0.1004 0.05,-0.1506 0.05,-0.251c0.6,-2.0078 1.3,-4.0659 1.85,-6.1239c0.4,-1.6063 1,-3.2125 1.35,-4.869c0.2,-0.9035 0.55,-1.7569 0.85,-2.6604c0.1,-0.4016 0.2,-0.753 0.3,-1.1545c0.15,-0.4518 0.2,-0.4518 0.95,-0.2008z" fill="#7d6c58"/><path d="M235.65,185.9898c-0.15,-0.251 -0.1,-0.5522 -0.05,-0.8031c0.05,-0.251 0.15,-0.4518 0.2,-0.7028c0.75,-2.058 1.25,-4.2164 1.9,-6.3247c0.4,-1.3051 0.75,-2.6102 1.15,-3.9153c0.2,-0.6023 0.15,-1.3051 0.55,-1.8572c0.1,0 0.2,-0.0502 0.35,-0.1004c0.55,0 0.7,0.2008 0.6,0.7027c0,0.0502 0,0.1004 -0.05,0.1004c-0.55,1.8573 -1.2,3.7145 -1.65,5.622c-0.4,1.6564 -1.05,3.2125 -1.35,4.869c-0.1,0.6525 -0.4,1.3051 -0.6,1.9576c-0.2,0.5522 -0.3,0.6024 -1.05,0.4518z" fill="#7f6d5a"/><path d="M229.4,182.1247c-0.55,-0.7027 -0.8,-1.5059 -0.85,-2.309c-0.1,-1.7569 0.25,-3.5137 1.25,-4.9694c0.55,-0.8534 1.3,-1.6063 2.1,-2.2588c0.25,0.0501 0.15,0.2509 0.15,0.3513c0,0.1506 0,0.3012 -0.05,0.4518c-0.1,0.3514 -0.25,0.7027 -0.35,1.0039c-0.6,2.0079 -1.2,4.0659 -1.85,6.0737c-0.1,0.5522 -0.05,1.1545 -0.4,1.6565z" fill="#806e5a"/><path d="M238.85,185.7388c-0.4,0.0502 -0.7,0.3012 -1.05,0.2008c-0.2,-0.2008 -0.05,-0.4016 0,-0.5521c0.55,-1.8573 1.2,-3.6644 1.65,-5.5216c0.35,-1.3553 0.8,-2.6604 1.2,-4.0157c0.1,-0.3012 0.15,-0.6024 0.2,-0.9537c0.1,-0.502 0.3,-0.9538 0.45,-1.4557c0.6,0.1004 0.85,0.4016 0.7,0.9035c-0.2,0.753 -0.3,1.4557 -0.55,2.2086c-0.45,1.5561 -0.8,3.1624 -1.25,4.7185c-0.45,1.5059 -0.65,3.0117 -1.35,4.4674z" fill="#7d6c59"/><path d="M238.3,171.9851c0,0.1506 0.05,0.2008 0.05,0.2008c-0.5,1.4557 -0.8,3.0117 -1.3,4.4674c-0.65,1.9577 -1.1,4.0157 -1.7,5.9734c-0.3,1.0039 -0.7,1.9576 -1.05,2.9615c-0.3,0.1506 -0.5,0 -0.75,-0.2007c0,-0.1004 -0.05,-0.1506 -0.05,-0.251c0.6,-1.9577 1.2,-3.9153 1.75,-5.873c0.5,-1.9074 1.2,-3.7145 1.6,-5.6219c0.1,-0.4518 0.3,-0.9036 0.45,-1.3553c0.2,-0.502 0.25,-0.502 1,-0.3012z" fill="#7e6d59"/><path d="M238.5,187.2949c-0.9,3.3129 -1.75,6.4753 -2.6,9.5875c-0.65,-0.0502 -0.65,-0.0502 -1.3,-0.4016c0.85,-2.9616 1.7,-5.9733 2.5,-8.7843c0.25,-0.3012 0.45,-0.3514 0.65,-0.3514c0.2,0 0.4,0 0.75,-0.0502z" fill="#d8c19f"/><path d="M236.4,171.5835c0,0.1004 0,0.2008 0,0.3514c-0.55,1.8573 -1.1,3.6643 -1.65,5.5216c-0.45,1.556 -0.85,3.0619 -1.35,4.618c-0.25,0.8031 -0.4,1.6063 -0.65,2.4094c-0.05,0.2008 -0.1,0.4016 -0.3,0.502c-0.25,0 -0.4,-0.251 -0.6,-0.4016c0,-0.6023 0.3,-1.1545 0.45,-1.7067c0.6,-2.0078 1.25,-3.9654 1.8,-5.9733c0.4,-1.4055 0.95,-2.811 1.15,-4.2667c0.05,-0.4015 0.15,-0.8031 0.45,-1.1043c0.25,-0.2008 0.5,-0.2509 0.7,0.0502z" fill="#7c6b58"/><path d="M233.5,171.6337c0.2,-0.1004 0.4,-0.2008 0.55,-0.3012c0.1,-0.0501 0.2,-0.0501 0.3,-0.0501c0.15,0.0501 0.2,0.1003 0.15,0.2007c-0.35,1.2047 -0.65,2.4596 -1.05,3.6644c-0.7,2.309 -1.4,4.6682 -2,6.9772c-0.15,0.5522 -0.4,1.1043 -0.6,1.7067c-0.75,-0.502 -0.8,-0.5522 -0.55,-1.2047c0.65,-1.8573 1.1,-3.7647 1.65,-5.622c0.55,-1.8071 1.25,-3.5137 1.55,-5.371z" fill="#7e6d59"/><path d="M240.45,184.3835c0.05,-0.5019 0.05,-0.8533 0.15,-1.2047c0.7,-2.5098 1.4,-5.0196 2.15,-7.6298c1.15,2.6102 0.5,6.5757 -2.3,8.8345z" fill="#7c6b58"/><path d="M235.05,187.3953c0.35,0 0.6,-0.1004 0.9,0.1506c-0.1,1.5059 -0.75,2.8612 -1.1,4.3168c-0.35,1.4557 -0.85,2.811 -1.25,4.2667c-0.35,0.1506 -0.65,-0.0502 -0.95,-0.2008c-0.15,-0.3513 1.65,-6.0737 2.4,-8.5333z" fill="#d5bd9c"/><path d="M227.75,194.5733c-0.3,0.1004 -0.55,0.1004 -0.75,-0.0502c0.2,-1.1043 2.55,-9.0855 2.9,-9.738c0.4,0.1004 0.6,0.3514 0.5,0.7529c-0.15,0.6024 -0.3,1.1545 -0.5,1.7569c-0.65,2.309 -1.35,4.618 -2,6.9271c-0.05,0.1004 -0.1,0.2007 -0.15,0.3513z" fill="#d4bd9c"/><path d="M231.5,195.5271c-0.4,0.1505 -0.6,0.0502 -0.8,-0.1506c0.1,-1.004 1.85,-7.0777 2.45,-8.4832c0.25,-0.2008 0.45,-0.0502 0.7,0.1506c0.05,1.0039 -0.45,1.8573 -0.7,2.811c-0.25,0.9035 -0.5,1.8573 -0.8,2.7608c-0.3,1.0039 -0.65,1.9074 -0.85,2.9114z" fill="#d0ba99"/><path d="M229.5,195.0251c-0.2,0.1004 -0.4,0.1004 -0.65,-0.1004c0.7,-2.9616 1.75,-5.8227 2.5,-8.7341c0.3,-0.1506 0.45,-0.0502 0.6,0.1004c-0.05,1.0039 -1.75,7.0776 -2.45,8.7341z" fill="#d5be9c"/><path d="M267.65,110.9969c-0.5,-0.2008 -0.75,-0.7028 -0.55,-1.1545c0.2,-0.4518 0.7,-0.753 1,-0.6526c0.5,0.1506 0.85,0.8031 0.7,1.2047c-0.25,0.502 -0.75,0.753 -1.15,0.6024z" fill="#7fc7cb"/><path d="M267.05,114.0086c-0.05,0.1004 -0.05,0.1506 -0.05,0.2008c-0.15,0.3514 -0.35,0.6526 -0.75,0.7028c-0.25,0.0502 -0.65,-0.4518 -0.7,-0.8534c-0.05,-0.3012 0.2,-0.7529 0.5,-0.8533c0.25,-0.1004 0.55,-0.1004 0.75,0.1506c0.25,0.1506 0.3,0.4517 0.25,0.6525z" fill="#80cace"/><path d="M264.75,118.2251c-0.15,0.4016 -0.4,0.6024 -0.7,0.502c-0.4,-0.1004 -0.75,-0.5522 -0.7,-0.9538c0.05,-0.4015 0.3,-0.6525 0.65,-0.8031c0.15,-0.0502 0.3,0 0.45,0.1004c0.4,0.3514 0.5,0.7027 0.3,1.1545z" fill="#7ec5c9"/><path d="M264.9,108.6878c-0.05,-0.4517 0.15,-0.7529 0.3,-1.0541c0.3,-0.5521 0.6,-1.1043 0.95,-1.7066c0.1,0.1505 0.25,0.2509 0.25,0.3513c-0.15,0.753 -0.4,1.4557 -0.85,2.0581c-0.2,0.2008 -0.25,0.4517 -0.65,0.3513z" fill="#6b5c4b"/><path d="M248.25,109.2902c-0.1,0.3012 -0.55,0.4518 -0.8,0.3514c-0.45,-0.1506 -0.65,-0.6526 -0.45,-1.0541c0.15,-0.251 0.55,-0.4016 0.85,-0.3012c0.3,0.1004 0.55,0.6525 0.4,1.0039z" fill="#78b9bc"/><path d="M248,105.4753c-0.3,-0.1506 -0.5,-0.5522 -0.4,-0.8533c0.15,-0.4016 0.5,-0.6024 0.8,-0.502c0.35,0.1506 0.5,0.502 0.4,0.8533c-0.15,0.3514 -0.5,0.6024 -0.8,0.502z" fill="#7dc1c5"/><path d="M246.65,112.6533c0.3,0.0502 0.5,0.2008 0.7,0.3514c0.25,0.251 0.2,0.5522 -0.05,0.8533c-0.2,0.2008 -0.45,0.2008 -0.6,0.0502c-0.4,-0.3513 -0.4,-0.6023 -0.05,-1.2549z" fill="#7cc0c4"/><path d="M257.45,120.8353c-0.05,0.0502 -0.1,0.1506 -0.15,0.1506c-0.3,0.1004 -0.55,0 -0.75,-0.2008c-0.05,-0.0502 -0.05,-0.2008 -0.05,-0.3012c0,-0.0502 0.1,-0.1506 0.15,-0.1506c0.3,-0.1004 0.65,0.0502 0.8,0.3012c0.05,0.0502 0,0.1506 0,0.2008z" fill="#9f8e75"/><path d="M253.05,119.8816c-0.05,-0.0502 -0.15,-0.0502 -0.2,-0.1004c-0.05,-0.0502 -0.1,-0.1506 -0.1,-0.2008c-0.05,-0.1506 0.1,-0.2008 0.2,-0.251c0.05,-0.0502 0.15,-0.0502 0.25,0c0.25,0 0.5,0 0.6,0.251c0.05,0.0502 0.05,0.1506 0,0.251c-0.2,0.251 -0.5,0.0502 -0.75,0.0502z" fill="#cdb796"/><path d="M250.85,118.9278c0.3,-0.1003 0.6,0 0.85,0.1506c0.05,0 0.05,0.1506 0.05,0.2008c0,0.0502 -0.05,0.1506 -0.1,0.2008c-0.25,0.1506 -0.45,0.0502 -0.65,-0.0502c-0.2,-0.1004 -0.2,-0.3012 -0.15,-0.502z" fill="#c8b293"/><path d="M255,120.3333c-0.05,-0.0502 -0.15,-0.0502 -0.2,-0.1004c-0.05,-0.1004 -0.15,-0.2007 -0.05,-0.3011c0.05,-0.0502 0.1,-0.1004 0.15,-0.1506c0.1,0 0.25,0 0.35,0c0.2,0.0502 0.4,0.1506 0.35,0.4015c-0.05,0.251 -0.25,0.2008 -0.45,0.2008c-0.05,0 -0.1,-0.0502 -0.15,-0.0502z" fill="#bfaa8c"/><path d="M249.95,118.8776c-0.1,0.1506 -0.15,0.3012 -0.35,0.2008c-0.2,-0.0502 -0.15,-0.2509 -0.1,-0.4015c0.05,-0.1506 0.1,-0.3012 0.35,-0.251c0.15,0.1506 0.1,0.3012 0.1,0.4517z" fill="#9d8c73"/><path d="M209.75,211.4392c-0.4,-0.0502 -0.65,-0.1506 -0.85,-0.5019c-0.8,-1.5059 -1.25,-3.1624 -1.65,-4.8189c0.1,-1.1043 0.1,-2.2086 0.3,-3.3129c0.25,-1.2047 0.6,-2.309 1,-3.4133c0.4,-1.0542 1,-1.9577 1.6,-2.9114c0.15,-0.2008 0.4,-0.4016 0.65,-0.5522c0.25,-0.1506 0.45,-0.0502 0.65,0.251c-0.15,0.4518 -0.25,0.9035 -0.55,1.3553c-0.9,1.3051 -1.5,2.7106 -1.9,4.2165c-0.25,0.9035 -0.25,1.9074 -0.25,2.811c0,1.4556 0.2,2.8611 0.65,4.2164c0.2,0.5522 0.4,1.1043 0.6,1.7067c0.1,0.4016 0.05,0.6525 -0.25,0.9537z" fill="#f0dfc7"/><path d="M231.2,162.8494c-0.2,0.4518 -0.6,0.7028 -1.05,0.9035c-0.9,0.4016 -1.7,0.9538 -2.5,1.5561c-0.55,0.4016 -1.15,0.8534 -1.4,1.5561c-0.15,0.3514 -0.45,0.6525 -0.9,0.7027c-0.65,0.1004 -1,-0.2509 -0.8,-0.9035c0.2,-0.6023 0.55,-1.0541 0.95,-1.4557c1.15,-1.2549 2.5,-2.1584 4.15,-2.6102c0.25,-0.0502 0.45,-0.2008 0.65,-0.2509c0.5,-0.2008 0.55,-0.1506 0.9,0.5019z" fill="#efdfc7"/><path d="M224.95,169.4251c0.05,1.2549 -0.45,2.309 -0.35,3.4133c-0.1,0.1004 -0.15,0.1506 -0.25,0.2008c-0.8,0.4016 -1.1,0.251 -1.2,-0.6023c-0.1,-0.7028 0.05,-1.4055 0.3,-2.1083c0.25,-0.7529 0.65,-1.0541 1.5,-0.9035z" fill="#efdfc7"/><path d="M251.05,117.0204c-0.3,-0.3514 -0.35,-0.8031 -0.2,-1.2549c0.2,-0.6024 0.15,-1.2549 0.2,-1.8573c0.05,-0.3513 0.15,-0.7027 0.3,-1.0039c0.1,-0.251 0.35,-0.3012 0.55,-0.3514c0.5,0.5522 0.15,1.2047 0.1,1.7067c-0.05,0.7529 -0.25,1.4557 -0.25,2.2086c0,0.4016 -0.1,0.4518 -0.7,0.5522z" fill="#efdfc6"/><path d="M254.9,106.931c-0.2,0.1004 -0.4,0.1506 -0.6,0.1506c-0.05,0 -0.05,0 -0.05,0c-0.05,0 -0.15,0 -0.25,0c-0.2,0 -0.35,-0.1004 -0.4,-0.251v0c-0.35,-0.251 -0.5,-0.7028 -0.4,-1.1043c0.2,-0.9538 1.35,-1.0039 1.9,-0.3514c0.15,0.1506 0.2,0.3514 0.2,0.5522c0,0.1004 0,0.1505 0,0.2509c-0.05,0.3012 -0.15,0.6024 -0.4,0.753z" fill="#000000"/><path d="M262.4,107.6839c-0.15,0.4518 -0.55,0.753 -1,0.6526c-0.15,0 -0.25,-0.0502 -0.35,-0.1506c-0.25,-0.0502 -0.5,-0.2008 -0.6,-0.502c-0.05,-0.2008 -0.05,-0.3514 0,-0.5019v0c0,-0.3012 0.2,-0.7028 0.55,-0.753c0.4,-0.1004 0.8,-0.1004 1.1,0.2008c0.25,0.251 0.35,0.7027 0.3,1.0541z" fill="#000000"/><path d="M259.95,111.9004c-0.4,0.1506 -0.85,0.0502 -1.15,-0.251c-0.3,-0.3514 -0.25,-0.8533 0.05,-1.1545v0c0.05,-0.0502 0.05,-0.1004 0.1,-0.1506c0.25,-0.4016 0.75,-0.4518 1.1,-0.251c0.25,0.1506 0.4,0.4016 0.4,0.7028c0,-0.0502 0,-0.0502 0,0c0.15,0.4517 0,0.9035 -0.5,1.1043z" fill="#000000"/><path d="M257.6,116.3176c-0.15,0.0502 -0.3,0.0502 -0.4,0c-0.35,-0.1505 -0.6,-0.4015 -0.65,-0.7529c-0.05,-0.4016 0.05,-0.7529 0.35,-1.0039c0.4,-0.3514 0.95,-0.251 1.3,0.1004c0.3,0.3012 0.3,0.7529 0.15,1.1043c-0.15,0.3514 -0.4,0.5521 -0.75,0.5521z" fill="#000000"/><path d="M254.35,110.4949c-0.2,0.3012 -0.55,0.4016 -0.9,0.3012c-0.3,-0.1004 -0.4,-0.3012 -0.5,-0.5522c-0.25,-0.2008 -0.35,-0.3514 -0.35,-0.7027c0,-0.251 0.25,-0.6024 0.55,-0.6526c0.15,-0.0502 0.25,-0.0502 0.4,-0.0502c0.2,0.0502 0.4,0.1506 0.6,0.251c0.2,0.1004 0.35,0.4518 0.3,0.753c0,0.2007 0,0.4517 -0.1,0.6525z" fill="#000000"/><path d="M253.4,115.1631c-0.05,0 -0.05,0 -0.05,0c-0.2,0.2008 -0.5,0.3012 -0.75,0.2008c-0.4,-0.1506 -0.65,-0.4517 -0.75,-0.8533c-0.1,-0.4518 0.15,-0.8533 0.6,-1.0039c0.05,-0.0502 0.1,-0.0502 0.15,-0.0502c0.25,-0.2008 0.65,-0.2008 0.9,0.1004c0.2,0.2007 0.35,0.4015 0.4,0.6525c0.05,0.3514 -0.2,0.753 -0.5,0.9537z" fill="#000000"/><text transform="translate(170.09375,252.5) scale(0.5,0.5)" font-size="40" xml:space="preserve" fill="#ffffff" fill-rule="nonzero" stroke="none" stroke-width="1" stroke-linecap="butt" stroke-linejoin="miter" stroke-miterlimit="10" stroke-dasharray="" stroke-dashoffset="0" font-family="Sans Serif" font-weight="normal" text-anchor="start" style="mix-blend-mode: normal"><tspan x="0" dy="0">Music Maker</tspan></text></g></g></svg>